<svg xmlns="http://www.w3.org/2000/svg" width="812.9" height="248.18" viewBox="0 0 812.9 248.18"><title>logo_dark</title><polygon points="16.2 49.52 13.35 49.52 13.35 50.19 11.25 50.19 11.25 50.93 9.82 50.93 9.82 51.6 9.15 51.6 9.15 52.27 8.48 52.27 8.48 53.01 7.05 53.01 7.05 53.68 6.3 53.68 6.3 54.43 5.62 54.43 5.62 55.09 4.95 55.09 4.95 55.76 4.2 55.76 4.2 57.18 3.53 57.18 3.53 57.84 2.85 57.84 2.85 58.59 2.1 58.59 2.1 60.01 1.43 60.01 1.43 62.09 0.67 62.09 0.67 65.58 0 65.58 0 167.37 0.67 167.37 0.67 170.11 1.43 170.11 1.43 171.53 2.1 171.53 2.1 172.94 2.85 172.94 2.85 174.27 3.53 174.27 3.53 175.02 4.2 175.02 4.2 175.69 4.95 175.69 4.95 176.44 5.62 176.44 5.62 177.1 6.3 177.1 6.3 177.77 7.05 177.77 7.05 178.52 7.72 178.52 7.72 179.18 8.48 179.18 8.48 179.85 9.15 179.85 9.15 180.6 10.58 180.6 10.58 181.26 12 181.26 12 182.01 14.1 182.01 14.1 182.68 16.87 182.68 16.87 183.34 23.25 183.34 23.25 182.68 26.02 182.68 26.02 182.01 27.45 182.01 27.45 181.26 28.88 181.26 28.88 180.6 30.22 180.6 30.22 179.85 30.98 179.85 30.98 179.18 32.32 179.18 32.32 178.52 33.07 178.52 33.07 177.77 33.74 177.77 33.74 177.1 34.5 177.1 34.5 176.44 35.17 176.44 35.17 175.69 35.84 175.69 35.84 175.02 36.6 175.02 36.6 173.61 37.27 173.61 37.27 172.19 37.94 172.19 37.94 170.86 38.7 170.86 38.7 168.7 39.37 168.7 39.37 119.93 40.12 119.93 40.12 120.59 40.8 120.59 40.8 121.34 41.47 121.34 41.47 122.76 42.22 122.76 42.22 123.42 42.9 123.42 42.9 124.09 43.57 124.09 43.57 125.5 44.32 125.5 44.32 126.17 44.99 126.17 44.99 126.92 45.75 126.92 45.75 127.58 46.42 127.58 46.42 129 47.09 129 47.09 129.66 47.85 129.66 47.85 130.41 48.52 130.41 48.52 131.08 49.27 131.08 49.27 132.5 49.95 132.5 49.95 133.16 50.62 133.16 50.62 134.57 51.37 134.57 51.37 135.24 52.04 135.24 52.04 135.99 52.72 135.99 52.72 137.32 53.47 137.32 53.47 138.07 54.14 138.07 54.14 138.74 54.9 138.74 54.9 140.15 55.57 140.15 55.57 140.82 56.24 140.82 56.24 141.57 57 141.57 57 142.9 57.67 142.9 57.67 143.65 58.34 143.65 58.34 144.31 59.09 144.31 59.09 145.06 59.77 145.06 59.77 146.39 60.52 146.39 60.52 147.14 61.19 147.14 61.19 147.81 61.87 147.81 61.87 149.22 62.62 149.22 62.62 149.89 63.29 149.89 63.29 151.3 63.96 151.3 63.96 151.97 64.72 151.97 64.72 152.72 65.39 152.72 65.39 153.38 66.15 153.38 66.15 154.05 66.82 154.05 66.82 155.47 67.49 155.47 67.49 156.21 68.25 156.21 68.25 156.88 68.92 156.88 68.92 158.29 69.59 158.29 69.59 158.96 70.34 158.96 70.34 159.71 71.02 159.71 71.02 160.38 71.77 160.38 71.77 161.79 72.44 161.79 72.44 162.46 73.11 162.46 73.11 163.87 73.87 163.87 73.87 164.54 74.54 164.54 74.54 165.28 75.21 165.28 75.21 166.62 75.97 166.62 75.97 167.37 76.64 167.37 76.64 168.03 77.39 168.03 77.39 169.45 78.07 169.45 78.07 170.11 78.74 170.11 78.74 170.86 79.49 170.86 79.49 171.53 80.17 171.53 80.17 172.19 80.84 172.19 80.84 173.61 81.59 173.61 81.59 174.27 82.26 174.27 82.26 175.02 83.02 175.02 83.02 175.69 83.69 175.69 83.69 176.44 84.36 176.44 84.36 177.1 85.12 177.1 85.12 177.77 85.79 177.77 85.79 178.52 87.22 178.52 87.22 179.18 87.89 179.18 87.89 179.85 89.31 179.85 89.31 180.6 90.74 180.6 90.74 181.26 92.17 181.26 92.17 182.01 95.61 182.01 95.61 182.68 104.76 182.68 104.76 182.01 107.61 182.01 107.61 181.26 109.04 181.26 109.04 180.6 110.38 180.6 110.38 179.85 111.81 179.85 111.81 179.18 112.48 179.18 112.48 178.52 113.24 178.52 113.24 177.77 113.91 177.77 113.91 177.1 114.67 177.1 114.67 176.44 115.34 176.44 115.34 175.69 116.01 175.69 116.01 175.02 116.76 175.02 116.76 174.27 117.44 174.27 117.44 172.94 118.11 172.94 118.11 171.53 118.86 171.53 118.86 170.11 119.53 170.11 119.53 167.37 120.29 167.37 120.29 64.17 119.53 64.17 119.53 61.34 118.86 61.34 118.86 60.01 118.11 60.01 118.11 58.59 117.44 58.59 117.44 57.18 116.76 57.18 116.76 55.76 116.01 55.76 116.01 55.09 115.34 55.09 115.34 54.43 114.67 54.43 114.67 53.68 113.91 53.68 113.91 53.01 113.24 53.01 113.24 52.27 111.81 52.27 111.81 51.6 110.38 51.6 110.38 50.93 109.71 50.93 109.71 50.19 108.29 50.19 108.29 49.52 106.19 49.52 106.19 48.85 94.94 48.85 94.94 49.52 92.84 49.52 92.84 50.19 91.41 50.19 91.41 50.93 89.99 50.93 89.99 51.6 88.64 51.6 88.64 52.27 87.89 52.27 87.89 53.01 87.22 53.01 87.22 53.68 86.55 53.68 86.55 54.43 85.79 54.43 85.79 55.09 85.12 55.09 85.12 55.76 84.36 55.76 84.36 57.18 83.69 57.18 83.69 58.59 83.02 58.59 83.02 60.01 82.26 60.01 82.26 61.34 81.59 61.34 81.59 64.17 80.84 64.17 80.84 108.78 80.17 108.78 80.17 108.11 79.49 108.11 79.49 107.36 78.74 107.36 78.74 106.69 78.07 106.69 78.07 105.28 77.39 105.28 77.39 104.61 76.64 104.61 76.64 103.86 75.97 103.86 75.97 102.53 75.21 102.53 75.21 101.78 74.54 101.78 74.54 101.12 73.87 101.12 73.87 100.37 73.11 100.37 73.11 99.7 72.44 99.7 72.44 98.29 71.77 98.29 71.77 97.62 71.02 97.62 71.02 96.21 70.34 96.21 70.34 95.54 69.59 95.54 69.59 94.79 68.92 94.79 68.92 93.46 68.25 93.46 68.25 92.71 67.49 92.71 67.49 92.05 66.82 92.05 66.82 91.38 66.15 91.38 66.15 89.97 65.39 89.97 65.39 89.22 64.72 89.22 64.72 88.55 63.96 88.55 63.96 87.14 63.29 87.14 63.29 86.47 62.62 86.47 62.62 85.81 61.87 85.81 61.87 85.06 61.19 85.06 61.19 83.64 60.52 83.64 60.52 82.31 59.77 82.31 59.77 81.56 59.09 81.56 59.09 80.89 58.34 80.89 58.34 80.15 57.67 80.15 57.67 78.81 57 78.81 57 78.06 56.24 78.06 56.24 77.4 55.57 77.4 55.57 75.98 54.9 75.98 54.9 75.32 54.14 75.32 54.14 74.57 53.47 74.57 53.47 73.24 52.72 73.24 52.72 72.49 52.04 72.49 52.04 71.82 51.37 71.82 51.37 70.41 50.62 70.41 50.62 69.74 49.95 69.74 49.95 68.99 49.27 68.99 49.27 68.33 48.52 68.33 48.52 66.91 47.85 66.91 47.85 66.25 47.09 66.25 47.09 65.58 46.42 65.58 46.42 64.83 45.75 64.83 45.75 63.42 44.99 63.42 44.99 62.75 44.32 62.75 44.32 62.09 43.57 62.09 43.57 60.67 42.9 60.67 42.9 60.01 42.22 60.01 42.22 59.26 41.47 59.26 41.47 58.59 40.8 58.59 40.8 57.18 40.12 57.18 40.12 56.51 39.37 56.51 39.37 55.76 38.7 55.76 38.7 55.09 37.94 55.09 37.94 54.43 37.27 54.43 37.27 53.68 35.84 53.68 35.84 53.01 35.17 53.01 35.17 52.27 34.5 52.27 34.5 51.6 33.07 51.6 33.07 50.93 31.65 50.93 31.65 50.19 30.22 50.19 30.22 49.52 27.45 49.52 27.45 48.85 16.2 48.85 16.2 49.52" fill="#000f41" fill-rule="evenodd"/><polygon points="708.81 49.52 706.04 49.52 706.04 50.19 703.94 50.19 703.94 50.93 702.51 50.93 702.51 51.6 701.84 51.6 701.84 52.27 700.41 52.27 700.41 53.01 699.74 53.01 699.74 53.68 698.99 53.68 698.99 54.43 698.32 54.43 698.32 55.09 697.56 55.09 697.56 55.76 696.89 55.76 696.89 56.51 696.22 56.51 696.22 57.18 695.46 57.18 695.46 58.59 694.79 58.59 694.79 60.01 694.03 60.01 694.03 62.09 693.36 62.09 693.36 64.17 692.69 64.17 692.69 167.37 693.36 167.37 693.36 170.11 694.03 170.11 694.03 171.53 694.79 171.53 694.79 172.94 695.46 172.94 695.46 174.27 696.22 174.27 696.22 175.02 696.89 175.02 696.89 176.44 697.56 176.44 697.56 177.1 698.32 177.1 698.32 177.77 698.99 177.77 698.99 178.52 700.41 178.52 700.41 179.18 701.09 179.18 701.09 179.85 701.84 179.85 701.84 180.6 703.18 180.6 703.18 181.26 704.61 181.26 704.61 182.01 706.71 182.01 706.71 182.68 708.81 182.68 708.81 183.34 715.86 183.34 715.86 182.68 717.96 182.68 717.96 182.01 720.06 182.01 720.06 181.26 721.48 181.26 721.48 180.6 722.91 180.6 722.91 179.85 723.58 179.85 723.58 179.18 724.34 179.18 724.34 178.52 725.68 178.52 725.68 177.77 726.44 177.77 726.44 177.1 727.11 177.1 727.11 176.44 727.86 176.44 727.86 175.02 728.54 175.02 728.54 174.27 729.21 174.27 729.21 173.61 729.96 173.61 729.96 172.19 730.63 172.19 730.63 170.11 731.39 170.11 731.39 167.37 732.06 167.37 732.06 119.93 732.73 119.93 732.73 120.59 733.49 120.59 733.49 122.01 734.16 122.01 734.16 122.76 734.83 122.76 734.83 123.42 735.59 123.42 735.59 124.84 736.26 124.84 736.26 125.5 737.01 125.5 737.01 126.17 737.68 126.17 737.68 126.92 738.36 126.92 738.36 128.33 739.11 128.33 739.11 129 739.78 129 739.78 129.66 740.46 129.66 740.46 131.08 741.21 131.08 741.21 131.75 741.88 131.75 741.88 132.5 742.64 132.5 742.64 133.16 743.31 133.16 743.31 134.57 743.98 134.57 743.98 135.24 744.74 135.24 744.74 135.99 745.41 135.99 745.41 137.32 746.08 137.32 746.08 138.07 746.84 138.07 746.84 138.74 747.51 138.74 747.51 140.15 748.26 140.15 748.26 140.82 748.93 140.82 748.93 141.57 749.61 141.57 749.61 142.23 750.36 142.23 750.36 143.65 751.03 143.65 751.03 145.06 751.7 145.06 751.7 145.73 752.46 145.73 752.46 146.39 753.13 146.39 753.13 147.14 753.89 147.14 753.89 148.47 754.56 148.47 754.56 149.22 755.23 149.22 755.23 149.89 755.99 149.89 755.99 150.64 756.66 150.64 756.66 151.97 757.33 151.97 757.33 152.72 758.08 152.72 758.08 153.38 758.75 153.38 758.75 154.8 759.51 154.8 759.51 155.47 760.18 155.47 760.18 156.21 760.85 156.21 760.85 156.88 761.61 156.88 761.61 158.29 762.28 158.29 762.28 159.71 762.95 159.71 762.95 160.38 763.71 160.38 763.71 161.04 764.38 161.04 764.38 161.79 765.13 161.79 765.13 163.12 765.81 163.12 765.81 163.87 766.48 163.87 766.48 164.54 767.23 164.54 767.23 165.28 767.9 165.28 767.9 165.95 768.58 165.95 768.58 166.62 769.33 166.62 769.33 168.03 770 168.03 770 169.45 770.76 169.45 770.76 170.11 771.43 170.11 771.43 170.86 772.1 170.86 772.1 171.53 772.86 171.53 772.86 172.94 773.53 172.94 773.53 173.61 774.28 173.61 774.28 174.27 774.96 174.27 774.96 175.02 775.63 175.02 775.63 175.69 776.38 175.69 776.38 176.44 777.05 176.44 777.05 177.1 777.73 177.1 777.73 177.77 778.48 177.77 778.48 178.52 779.15 178.52 779.15 179.18 780.58 179.18 780.58 179.85 781.25 179.85 781.25 180.6 782.68 180.6 782.68 181.26 784.78 181.26 784.78 182.01 786.88 182.01 786.88 182.68 796.78 182.68 796.78 182.01 799.55 182.01 799.55 181.26 801.65 181.26 801.65 180.6 803.08 180.6 803.08 179.85 804.5 179.85 804.5 179.18 805.17 179.18 805.17 178.52 805.85 178.52 805.85 177.77 806.6 177.77 806.6 177.1 807.27 177.1 807.27 176.44 808.03 176.44 808.03 175.69 808.7 175.69 808.7 175.02 809.37 175.02 809.37 173.61 810.13 173.61 810.13 172.94 810.8 172.94 810.8 171.53 811.55 171.53 811.55 169.45 812.23 169.45 812.23 166.62 812.9 166.62 812.9 64.83 812.23 64.83 812.23 62.09 811.55 62.09 811.55 60.01 810.8 60.01 810.8 58.59 810.13 58.59 810.13 57.18 809.37 57.18 809.37 56.51 808.7 56.51 808.7 55.76 808.03 55.76 808.03 55.09 807.27 55.09 807.27 54.43 806.6 54.43 806.6 53.68 805.85 53.68 805.85 53.01 805.17 53.01 805.17 52.27 804.5 52.27 804.5 51.6 803.75 51.6 803.75 50.93 802.4 50.93 802.4 50.19 800.22 50.19 800.22 49.52 798.12 49.52 798.12 48.85 787.63 48.85 787.63 49.52 785.53 49.52 785.53 50.19 784.11 50.19 784.11 50.93 782.68 50.93 782.68 51.6 782.01 51.6 782.01 52.27 780.58 52.27 780.58 53.01 779.91 53.01 779.91 53.68 779.15 53.68 779.15 54.43 778.48 54.43 778.48 55.09 777.73 55.09 777.73 55.76 777.05 55.76 777.05 57.18 776.38 57.18 776.38 57.84 775.63 57.84 775.63 59.26 774.96 59.26 774.96 60.67 774.28 60.67 774.28 62.75 773.53 62.75 773.53 109.44 772.86 109.44 772.86 108.78 772.1 108.78 772.1 108.11 771.43 108.11 771.43 106.69 770.76 106.69 770.76 105.95 770 105.95 770 104.61 769.33 104.61 769.33 103.86 768.58 103.86 768.58 103.2 767.9 103.2 767.9 102.53 767.23 102.53 767.23 101.78 766.48 101.78 766.48 100.37 765.81 100.37 765.81 99.7 765.13 99.7 765.13 98.29 764.38 98.29 764.38 97.62 763.71 97.62 763.71 96.96 762.95 96.96 762.95 95.54 762.28 95.54 762.28 94.79 761.61 94.79 761.61 94.13 760.85 94.13 760.85 92.71 760.18 92.71 760.18 92.05 759.51 92.05 759.51 91.38 758.75 91.38 758.75 90.63 758.08 90.63 758.08 89.97 757.33 89.97 757.33 88.55 756.66 88.55 756.66 87.14 755.99 87.14 755.99 86.47 755.23 86.47 755.23 85.81 754.56 85.81 754.56 85.06 753.89 85.06 753.89 83.64 753.13 83.64 753.13 82.98 752.46 82.98 752.46 81.56 751.7 81.56 751.7 80.89 751.03 80.89 751.03 80.15 750.36 80.15 750.36 79.48 749.61 79.48 749.61 78.81 748.93 78.81 748.93 77.4 748.26 77.4 748.26 75.98 747.51 75.98 747.51 75.32 746.84 75.32 746.84 74.57 746.08 74.57 746.08 73.9 745.41 73.9 745.41 72.49 744.74 72.49 744.74 71.82 743.98 71.82 743.98 71.16 743.31 71.16 743.31 70.41 742.64 70.41 742.64 68.99 741.88 68.99 741.88 68.33 741.21 68.33 741.21 67.66 740.46 67.66 740.46 66.25 739.78 66.25 739.78 65.58 739.11 65.58 739.11 64.83 738.36 64.83 738.36 63.42 737.68 63.42 737.68 62.75 737.01 62.75 737.01 62.09 736.26 62.09 736.26 61.34 735.59 61.34 735.59 60.01 734.83 60.01 734.83 59.26 734.16 59.26 734.16 57.84 733.49 57.84 733.49 57.18 732.73 57.18 732.73 56.51 732.06 56.51 732.06 55.76 731.39 55.76 731.39 55.09 730.63 55.09 730.63 54.43 729.96 54.43 729.96 53.68 729.21 53.68 729.21 53.01 728.54 53.01 728.54 52.27 727.11 52.27 727.11 51.6 725.68 51.6 725.68 50.93 724.34 50.93 724.34 50.19 722.24 50.19 722.24 49.52 720.06 49.52 720.06 48.85 708.81 48.85 708.81 49.52" fill="#000f41" fill-rule="evenodd"/><path d="M565.35,109.44h.76V106h.67v-2.08h.75v-1.34h.68v-2.16h.67V99.7h.75V98.29h.67V97H571v-.75h.75v-.67h.67v-.75h.76v-.66h.67v-.67h.67v-.75h.76v-.66h.67v-.67h.67v-.75h.76V90H578v-.75h1.42v-.67h1.43v-.66h1.43v-.75h2.1v-.67h1.34v-.66h5v-.75h7.72v.75h4.2v.66h2.18v.67h1.35v.75h2.1v.66H609v.67h1.43V90h.67v.66h1.43v.75h.67v.67h.67v.66h.76v.75h.67v.67h.75v.66h.67v.75h.68v.67h.75v1.41h.67v.67h.76V99.7h.67v1.42h.67v1.41h.76v1.34h.67V106H623v3.49h.76v13.32H623v2.08h-.67v2.74h-.67v2.08h-.76v1.42h-.67v1.41h-.67v1.42h-.76v.67h-.67v.66h-.75V136h-.68v.67h-.67v.66h-.75v.75h-.67v.67h-.76v.75h-.67v.66h-.67v.67h-.76v.75h-.67v.66h-1.43v.67h-1.42v.75H606.9v.66h-1.42v.75h-2.86v.67h-2.77v.66H590v-.66h-4.28v-.67h-1.34v-.75h-2.1v-.66h-1.43v-.75h-.75v-.67h-1.35v-.66h-1.42v-.75h-.76v-.67h-.67v-.66h-.67v-.75h-.76v-.67h-.67v-.75h-.67v-.66h-.76V136h-.67v-.75H571v-.66h-.68v-1.42h-.67v-1.41h-.75v-1.34h-.67V129h-.68v-1.42h-.75V125.5h-.67V122h-.76ZM588.6,48.1H583v.75h-3.53v.67h-3.52v.66h-2.77v.75H570.3v.67h-1.42v.67h-1.35V53h-2.18v.67H564v.75h-1.43v.67h-1.43v.66h-1.42v.75h-1.35v.67H557v.66h-.67v.75h-1.43v.67h-1.43V60h-.67v.66h-1.43v.67h-.67v.75h-.75v.66h-1.43v.67h-.67v.75h-.67v.66h-.76v.75h-.67v.67H545v.66h-.76v.75h-.67v.67h-.75V69h-.68v.75h-.67v.67h-.75v.75h-.67v.66h-.76v1.42h-.67v.66H538v1.42h-.76V76h-.67v.75h-.67v1.34h-.76v.74h-.67v1.34h-.75v.74H533v1.42h-.67v1.33h-.75v1.42h-.67v1.41h-.68v1.42h-.75v1.33h-.67v2.16h-.76v1.33h-.67v2.08h-.67V97H526V99.7h-.67v4.17h-.67v3.49h-.76v16.73h.76v4.24h.67v4.16H526v2.75h.76v2.08h.67v2.17h.67v1.33h.76v2.08h.67v1.41h.75v1.42h.68v1.41h.67v1.33h.75v1.42H533v1.41h.68v1.42h.75v.66h.67v1.42h.76v.66h.67v.75h.67v1.34H538v.74h.67V159h.67v.75h.76V161h.67v.75h.75v.67h.67v.66h.68v.75h.75v.67h.67v.75H545V166h.67v.67h.67v.75h1.43V168h.67v.67h.75v.75h.68v.66h.75v.75H552v.67h1.43v.66h.67v.75h.76v.67h1.43v.66h1.34V175h.75v.67h1.35v.75h1.42v.66h1.43v.67h2.1v.75h1.43v.66h2.1v.67h1.42v.75h2.1v.66h3.53V182h2.1v.67h4.19v.67h5v.74h16.11v-.74h5v-.67h3.53V182h2.1v-.75h3.52v-.66h1.43v-.75h2.1v-.67h2.1v-.66h1.43v-.75h2.09v-.67h1.43v-.66h1.34v-.75h.76V175h1.43v-.75h1.34v-.66h1.43v-.67h.67v-.75h1.43v-.66h.75v-.67h1.34v-.75h.76v-.66h.67v-.75h.67V168h.76v-.66h1.42v-.75h.68V166h.67v-.66h.75v-.75h.68v-.67h.67v-.75h.75v-.66h.67v-.67h.76V161h.67v-.66H649V159h.76v-.67h.67v-.74h.67v-.67h.76v-1.42h.67v-.66h.75v-.75H654v-1.33h.68V152h.75v-1.33h.67v-1.42h.76v-1.41h.67v-1.42h.67v-1.33H659v-1.41h.67v-1.42h.67v-2.08h.76v-1.41h.67v-2.08h.75v-2.75h.67v-2.83h.68v-3.5h.75v-3.49h.67V107.36h-.67V103.2h-.75V99h-.68V96.21h-.67V94.79h-.75V92.05h-.67V90.63h-.76V88.55h-.67V87.14H659V85.81h-.76V84.39h-.67V83h-.67V81.56h-.76V80.15h-.67v-.67h-.75V78.07H654V76.73h-.67V76h-.75v-.66h-.67V73.9h-.76v-.66h-.67v-.75h-.67V71.16H649v-.75h-.67v-.67h-.67V69h-.76v-.66h-.67v-.67h-.75v-.75h-.67v-.66h-.68v-.67h-.75v-.75h-1.35v-.66h-.75v-.75h-.67v-.67h-.76v-.66h-.67v-.75h-1.43v-.67h-.67V60H635.7v-.75H635v-.67h-.75v-.75h-1.34v-.66H631.5v-.67h-1.43v-.75h-1.43V55.1H628v-.67h-2.1v-.75h-1.42V53H623v-.74h-2.1V51.6h-2.1v-.67h-2.1v-.75h-2.85v-.66H611.1v-.67h-4.2V48.1h-2.85v-.66H588.6Z" fill="#000f41" fill-rule="evenodd"/><polygon points="168.81 50.19 165.28 50.19 165.28 50.93 163.18 50.93 163.18 51.6 161.76 51.6 161.76 52.27 161.09 52.27 161.09 53.01 159.66 53.01 159.66 53.68 158.9 53.68 158.9 54.43 158.23 54.43 158.23 55.09 157.56 55.09 157.56 55.76 156.8 55.76 156.8 56.51 156.13 56.51 156.13 57.84 155.38 57.84 155.38 58.59 154.71 58.59 154.71 60.01 154.03 60.01 154.03 61.34 153.28 61.34 153.28 62.75 152.61 62.75 152.61 64.83 151.94 64.83 151.94 165.95 152.61 165.95 152.61 168.7 153.28 168.7 153.28 170.86 154.03 170.86 154.03 172.19 154.71 172.19 154.71 172.94 155.38 172.94 155.38 174.27 156.13 174.27 156.13 175.02 156.8 175.02 156.8 175.69 157.56 175.69 157.56 176.44 158.23 176.44 158.23 177.1 158.9 177.1 158.9 177.77 159.66 177.77 159.66 178.52 160.33 178.52 160.33 179.18 161.76 179.18 161.76 179.85 163.18 179.85 163.18 180.6 165.28 180.6 165.28 181.26 168.05 181.26 168.05 182.01 244.02 182.01 244.02 181.26 246.12 181.26 246.12 180.6 247.55 180.6 247.55 179.85 248.97 179.85 248.97 179.18 250.32 179.18 250.32 178.52 251.07 178.52 251.07 177.77 251.74 177.77 251.74 177.1 252.5 177.1 252.5 176.44 253.17 176.44 253.17 175.69 253.84 175.69 253.84 175.02 254.6 175.02 254.6 174.27 255.27 174.27 255.27 172.94 255.94 172.94 255.94 171.53 256.7 171.53 256.7 170.11 257.37 170.11 257.37 166.62 258.12 166.62 258.12 159.71 257.37 159.71 257.37 157.54 256.7 157.54 256.7 156.21 255.94 156.21 255.94 154.8 255.27 154.8 255.27 153.38 254.6 153.38 254.6 152.72 253.84 152.72 253.84 151.97 253.17 151.97 253.17 151.3 252.5 151.3 252.5 150.64 251.74 150.64 251.74 149.89 251.07 149.89 251.07 149.22 250.32 149.22 250.32 148.47 248.97 148.47 248.97 147.81 248.22 147.81 248.22 147.14 246.87 147.14 246.87 146.39 244.02 146.39 244.02 145.73 191.98 145.73 191.98 145.06 191.31 145.06 191.31 133.91 191.98 133.91 191.98 133.16 236.97 133.16 236.97 132.5 238.4 132.5 238.4 131.75 239.82 131.75 239.82 131.08 241.25 131.08 241.25 130.41 241.92 130.41 241.92 129.66 242.59 129.66 242.59 129 243.35 129 243.35 128.33 244.02 128.33 244.02 127.58 244.69 127.58 244.69 126.92 245.45 126.92 245.45 126.17 246.12 126.17 246.12 124.84 246.87 124.84 246.87 124.09 247.55 124.09 247.55 122.76 248.22 122.76 248.22 121.34 248.97 121.34 248.97 118.51 249.65 118.51 249.65 111.52 248.97 111.52 248.97 109.44 248.22 109.44 248.22 108.11 247.55 108.11 247.55 106.69 246.87 106.69 246.87 105.28 246.12 105.28 246.12 104.61 245.45 104.61 245.45 103.86 244.69 103.86 244.69 103.2 244.02 103.2 244.02 102.53 243.35 102.53 243.35 101.78 242.59 101.78 242.59 101.12 241.92 101.12 241.92 100.37 241.25 100.37 241.25 99.7 240.5 99.7 240.5 99.04 238.4 99.04 238.4 98.29 236.97 98.29 236.97 97.62 234.2 97.62 234.2 96.96 191.98 96.96 191.98 86.47 241.92 86.47 241.92 85.81 244.02 85.81 244.02 85.06 246.12 85.06 246.12 84.39 247.55 84.39 247.55 83.64 248.97 83.64 248.97 82.98 249.65 82.98 249.65 82.31 250.32 82.31 250.32 81.56 251.07 81.56 251.07 80.89 251.74 80.89 251.74 80.15 252.5 80.15 252.5 79.48 253.17 79.48 253.17 78.81 253.84 78.81 253.84 78.06 254.6 78.06 254.6 76.73 255.27 76.73 255.27 75.32 255.94 75.32 255.94 73.9 256.7 73.9 256.7 71.82 257.37 71.82 257.37 64.17 256.7 64.17 256.7 62.09 255.94 62.09 255.94 60.67 255.27 60.67 255.27 59.26 254.6 59.26 254.6 57.84 253.84 57.84 253.84 56.51 253.17 56.51 253.17 55.76 252.5 55.76 252.5 55.09 251.74 55.09 251.74 54.43 251.07 54.43 251.07 53.68 250.32 53.68 250.32 53.01 248.97 53.01 248.97 52.27 248.22 52.27 248.22 51.6 246.87 51.6 246.87 50.93 244.69 50.93 244.69 50.19 242.59 50.19 242.59 49.52 168.81 49.52 168.81 50.19" fill="#000f41" fill-rule="evenodd"/><polygon points="307.31 49.52 305.89 49.52 305.89 50.19 303.79 50.19 303.79 50.93 303.12 50.93 303.12 51.6 301.69 51.6 301.69 52.27 301.02 52.27 301.02 53.01 300.26 53.01 300.26 53.68 299.59 53.68 299.59 54.43 298.83 54.43 298.83 55.09 298.16 55.09 298.16 55.76 297.49 55.76 297.49 56.51 296.74 56.51 296.74 57.18 296.06 57.18 296.06 58.59 295.39 58.59 295.39 60.01 294.64 60.01 294.64 62.09 293.97 62.09 293.97 64.83 293.21 64.83 293.21 166.62 293.97 166.62 293.97 168.7 294.64 168.7 294.64 170.86 295.39 170.86 295.39 171.53 296.06 171.53 296.06 172.94 296.74 172.94 296.74 174.27 297.49 174.27 297.49 175.02 298.16 175.02 298.16 175.69 298.83 175.69 298.83 176.44 299.59 176.44 299.59 177.1 300.26 177.1 300.26 177.77 301.02 177.77 301.02 178.52 301.69 178.52 301.69 179.18 303.12 179.18 303.12 179.85 304.46 179.85 304.46 180.6 306.64 180.6 306.64 181.26 308.74 181.26 308.74 182.01 380.43 182.01 380.43 181.26 381.85 181.26 381.85 180.6 383.95 180.6 383.95 179.85 385.38 179.85 385.38 179.18 386.05 179.18 386.05 178.52 386.81 178.52 386.81 177.77 388.15 177.77 388.15 177.1 388.9 177.1 388.9 176.44 389.58 176.44 389.58 175.69 390.33 175.69 390.33 174.27 391 174.27 391 173.61 391.68 173.61 391.68 172.19 392.43 172.19 392.43 170.86 393.1 170.86 393.1 168.7 393.77 168.7 393.77 166.62 394.53 166.62 394.53 159.71 393.77 159.71 393.77 157.54 393.1 157.54 393.1 156.21 392.43 156.21 392.43 154.8 391.68 154.8 391.68 153.38 391 153.38 391 152.72 390.33 152.72 390.33 151.3 389.58 151.3 389.58 150.64 388.9 150.64 388.9 149.89 388.15 149.89 388.15 149.22 387.48 149.22 387.48 148.47 386.81 148.47 386.81 147.81 385.38 147.81 385.38 147.14 383.95 147.14 383.95 146.39 381.85 146.39 381.85 145.73 380.43 145.73 380.43 145.06 333.33 145.06 333.33 64.83 332.66 64.83 332.66 62.09 331.91 62.09 331.91 60.01 331.24 60.01 331.24 58.59 330.48 58.59 330.48 57.18 329.81 57.18 329.81 56.51 329.14 56.51 329.14 55.76 328.38 55.76 328.38 55.09 327.71 55.09 327.71 54.43 327.04 54.43 327.04 53.68 326.28 53.68 326.28 53.01 325.61 53.01 325.61 52.27 324.86 52.27 324.86 51.6 323.51 51.6 323.51 50.93 322.76 50.93 322.76 50.19 320.66 50.19 320.66 49.52 318.56 49.52 318.56 48.85 307.31 48.85 307.31 49.52" fill="#000f41" fill-rule="evenodd"/><polygon points="454.97 235.69 454.3 235.69 454.3 236.36 454.97 236.36 454.97 235.69 457.07 235.69 457.07 234.94 458.49 234.94 458.49 234.28 459.92 234.28 459.92 233.61 461.35 233.61 461.35 232.86 462.69 232.86 462.69 232.2 464.12 232.2 464.12 231.45 465.54 231.45 465.54 230.78 466.97 230.78 466.97 230.12 468.31 230.12 468.31 229.37 469.74 229.37 469.74 228.7 470.5 228.7 470.5 227.95 471.17 227.95 471.17 227.29 472.6 227.29 472.6 226.62 473.27 226.62 473.27 225.87 474.69 225.87 474.69 225.21 476.12 225.21 476.12 224.54 477.46 224.54 477.46 223.79 478.22 223.79 478.22 223.13 478.89 223.13 478.89 222.38 479.56 222.38 479.56 221.71 480.99 221.71 480.99 221.05 481.75 221.05 481.75 220.3 482.42 220.3 482.42 219.63 483.09 219.63 483.09 218.97 483.84 218.97 483.84 218.22 485.19 218.22 485.19 217.55 485.94 217.55 485.94 216.8 486.61 216.8 486.61 216.14 487.37 216.14 487.37 215.47 488.04 215.47 488.04 214.72 488.71 214.72 488.71 214.06 489.47 214.06 489.47 213.39 490.14 213.39 490.14 212.64 490.81 212.64 490.81 211.23 491.57 211.23 491.57 210.56 492.24 210.56 492.24 209.89 492.99 209.89 492.99 208.48 493.67 208.48 493.67 207.81 494.34 207.81 494.34 207.06 495.09 207.06 495.09 206.4 495.76 206.4 495.76 204.98 496.44 204.98 496.44 204.32 497.19 204.32 497.19 203.57 497.86 203.57 497.86 202.24 498.62 202.24 498.62 200.82 499.29 200.82 499.29 199.41 499.96 199.41 499.96 197.99 500.72 197.99 500.72 196.66 501.39 196.66 501.39 194.5 502.14 194.5 502.14 193.17 502.81 193.17 502.81 191 503.49 191 503.49 189.67 504.24 189.67 504.24 185.43 504.91 185.43 504.91 182.01 505.58 182.01 505.58 165.95 504.91 165.95 504.91 161.79 504.24 161.79 504.24 157.54 503.49 157.54 503.49 153.38 502.81 153.38 502.81 151.97 502.14 151.97 502.14 150.64 501.39 150.64 501.39 147.81 500.72 147.81 500.72 146.39 499.96 146.39 499.96 145.06 499.29 145.06 499.29 142.9 498.62 142.9 498.62 141.57 497.86 141.57 497.86 140.15 497.19 140.15 497.19 138.74 496.44 138.74 496.44 137.32 495.76 137.32 495.76 135.99 495.09 135.99 495.09 134.57 494.34 134.57 494.34 133.91 493.67 133.91 493.67 141.57 492.99 141.57 492.99 143.65 492.24 143.65 492.24 145.06 491.57 145.06 491.57 145.73 490.81 145.73 490.81 146.39 490.14 146.39 490.14 147.14 489.47 147.14 489.47 147.81 488.71 147.81 488.71 148.47 488.04 148.47 488.04 149.22 487.37 149.22 487.37 149.89 486.61 149.89 486.61 150.64 485.19 150.64 485.19 151.3 483.84 151.3 483.84 151.97 483.09 151.97 483.09 152.72 481.75 152.72 481.75 153.38 480.32 153.38 480.32 154.05 478.89 154.05 478.89 154.8 477.46 154.8 477.46 155.47 476.12 155.47 476.12 156.21 473.94 156.21 473.94 156.88 471.84 156.88 471.84 157.54 470.5 157.54 470.5 158.29 467.64 158.29 467.64 158.96 466.22 158.96 466.22 159.71 463.45 159.71 463.45 160.38 459.17 160.38 459.17 161.04 456.39 161.04 456.39 161.79 452.2 161.79 452.2 162.46 447.92 162.46 447.92 163.12 443.72 163.12 443.72 163.87 442.29 163.87 442.29 164.54 440.19 164.54 440.19 165.28 438.85 165.28 438.85 165.95 437.42 165.95 437.42 166.62 436.67 166.62 436.67 167.37 436 167.37 436 168.03 435.32 168.03 435.32 168.7 434.57 168.7 434.57 169.45 433.9 169.45 433.9 172.19 434.57 172.19 434.57 173.61 435.32 173.61 435.32 174.27 436 174.27 436 175.02 436.67 175.02 436.67 175.69 437.42 175.69 437.42 176.44 438.1 176.44 438.1 177.1 438.85 177.1 438.85 177.77 440.19 177.77 440.19 178.52 442.29 178.52 442.29 179.18 443.72 179.18 443.72 179.85 446.57 179.85 446.57 180.6 451.44 180.6 451.44 181.26 456.39 181.26 456.39 182.01 457.82 182.01 457.82 184.76 456.39 184.76 456.39 185.43 453.54 185.43 453.54 186.18 442.29 186.18 442.29 185.43 433.9 185.43 433.9 184.76 428.94 184.76 428.94 184.09 425.42 184.09 425.42 183.34 421.22 183.34 421.22 182.68 419.12 182.68 419.12 182.01 418.45 182.01 418.45 182.68 410.65 182.68 410.65 183.34 407.2 183.34 407.2 184.09 405.78 184.09 405.78 184.76 403.68 184.76 403.68 185.43 402.92 185.43 402.92 186.18 401.58 186.18 401.58 186.84 400.82 186.84 400.82 187.59 400.15 187.59 400.15 188.26 399.4 188.26 399.4 188.92 398.73 188.92 398.73 189.67 398.06 189.67 398.06 190.34 397.3 190.34 397.3 191 396.63 191 396.63 191.75 395.96 191.75 395.96 192.42 395.2 192.42 395.2 193.17 394.53 193.17 394.53 193.83 393.77 193.83 393.77 195.25 393.1 195.25 393.1 195.91 392.43 195.91 392.43 196.66 391.68 196.66 391.68 197.33 391 197.33 391 197.99 391.68 197.99 391.68 197.33 393.1 197.33 393.1 196.66 393.77 196.66 393.77 195.25 394.53 195.25 394.53 194.5 395.2 194.5 395.2 193.83 395.96 193.83 395.96 193.17 397.3 193.17 397.3 191 398.73 191 398.73 189.67 399.4 189.67 399.4 188.92 400.82 188.92 400.82 188.26 401.58 188.26 401.58 187.59 402.25 187.59 402.25 188.26 402.92 188.26 402.92 186.84 407.2 186.84 407.2 187.59 408.55 187.59 408.55 188.26 407.2 188.26 407.2 188.92 405.02 188.92 405.02 189.67 406.45 189.67 406.45 190.34 407.2 190.34 407.2 191 409.3 191 409.3 193.17 409.97 193.17 409.97 193.83 410.65 193.83 410.65 195.25 412.07 195.25 412.07 195.91 414.17 195.91 414.17 195.25 416.27 195.25 416.27 195.91 418.45 195.91 418.45 196.66 419.12 196.66 419.12 197.33 419.8 197.33 419.8 197.99 420.55 197.99 420.55 198.74 421.22 198.74 421.22 199.41 421.89 199.41 421.89 200.82 422.65 200.82 422.65 202.24 420.55 202.24 420.55 203.57 421.89 203.57 421.89 204.32 424.08 204.32 424.08 204.98 425.42 204.98 425.42 205.65 426.85 205.65 426.85 206.4 427.6 206.4 427.6 207.81 426.85 207.81 426.85 209.15 427.6 209.15 427.6 213.39 433.9 213.39 433.9 214.06 434.57 214.06 434.57 214.72 435.32 214.72 435.32 215.47 436.67 215.47 436.67 216.8 437.42 216.8 437.42 217.55 438.85 217.55 438.85 218.22 440.19 218.22 440.19 218.97 439.52 218.97 439.52 219.63 440.19 219.63 440.19 220.3 442.29 220.3 442.29 221.05 443.05 221.05 443.05 222.38 443.72 222.38 443.72 223.79 444.48 223.79 444.48 224.54 451.44 224.54 451.44 225.87 452.2 225.87 452.2 226.62 452.87 226.62 452.87 227.29 459.17 227.29 459.17 226.62 460.59 226.62 460.59 227.29 459.17 227.29 459.17 230.78 458.49 230.78 458.49 231.45 457.07 231.45 457.07 232.86 455.72 232.86 455.72 232.2 454.3 232.2 454.3 231.45 453.54 231.45 453.54 232.2 454.3 232.2 454.3 232.86 454.97 232.86 454.97 233.61 455.72 233.61 455.72 234.28 454.97 234.28 454.97 235.69" fill="#026ca5" fill-rule="evenodd"/><polygon points="419.8 99.7 420.55 99.7 420.55 100.37 421.22 100.37 421.22 102.53 421.89 102.53 421.89 101.78 422.65 101.78 422.65 100.37 423.32 100.37 423.32 99.04 424.08 99.04 424.08 97.62 424.75 97.62 424.75 96.21 425.42 96.21 425.42 95.54 426.18 95.54 426.18 94.13 426.85 94.13 426.85 93.46 427.6 93.46 427.6 92.71 428.27 92.71 428.27 91.38 428.94 91.38 428.94 90.63 429.7 90.63 429.7 89.97 430.37 89.97 430.37 89.22 431.04 89.22 431.04 88.55 431.8 88.55 431.8 87.89 432.47 87.89 432.47 87.14 433.23 87.14 433.23 86.47 433.9 86.47 433.9 85.81 434.57 85.81 434.57 85.06 436 85.06 436 84.39 436.67 84.39 436.67 83.64 437.42 83.64 437.42 82.98 438.85 82.98 438.85 82.31 439.52 82.31 439.52 81.56 440.19 81.56 440.19 80.89 441.62 80.89 441.62 80.15 442.29 80.15 442.29 79.48 443.72 79.48 443.72 78.81 445.15 78.81 445.15 78.06 446.57 78.06 446.57 77.4 447.92 77.4 447.92 76.73 449.34 76.73 449.34 75.98 450.77 75.98 450.77 75.32 452.87 75.32 452.87 74.57 453.54 74.57 453.54 75.32 452.87 75.32 452.87 75.98 452.2 75.98 452.2 76.73 451.44 76.73 451.44 77.4 452.2 77.4 452.2 76.73 452.87 76.73 452.87 75.98 453.54 75.98 453.54 75.32 454.3 75.32 454.3 74.57 455.72 74.57 455.72 73.9 457.07 73.9 457.07 73.24 459.17 73.24 459.17 72.49 462.02 72.49 462.02 71.82 463.45 71.82 463.45 71.16 464.79 71.16 464.79 70.41 466.97 70.41 466.97 69.74 468.31 69.74 468.31 68.99 470.5 68.99 470.5 68.33 472.6 68.33 472.6 67.66 473.27 67.66 473.27 66.91 475.37 66.91 475.37 66.25 476.79 66.25 476.79 65.58 477.46 65.58 477.46 64.83 478.22 64.83 478.22 64.17 478.89 64.17 478.89 63.42 480.32 63.42 480.32 62.09 480.99 62.09 480.99 61.34 481.75 61.34 481.75 57.18 480.99 57.18 480.99 53.01 481.75 53.01 481.75 51.6 483.09 51.6 483.09 50.93 483.84 50.93 483.84 50.19 485.94 50.19 485.94 49.52 487.37 49.52 487.37 48.85 489.47 48.85 489.47 48.1 490.81 48.1 490.81 47.44 492.99 47.44 492.99 46.02 495.76 46.02 495.76 45.36 497.19 45.36 497.19 44.61 498.62 44.61 498.62 43.94 499.29 43.94 499.29 43.19 499.96 43.19 499.96 42.53 501.39 42.53 501.39 41.86 502.14 41.86 502.14 41.11 502.81 41.11 502.81 40.45 504.24 40.45 504.24 39.78 504.91 39.78 504.91 39.03 505.58 39.03 505.58 38.37 506.34 38.37 506.34 37.62 507.01 37.62 507.01 36.95 507.77 36.95 507.77 36.29 508.44 36.29 508.44 34.87 509.11 34.87 509.11 33.46 509.87 33.46 509.87 29.3 509.11 29.3 509.11 27.88 508.44 27.88 508.44 25.8 507.77 25.8 507.77 25.13 507.01 25.13 507.01 23.72 505.58 23.72 505.58 23.05 504.24 23.05 504.24 22.3 500.72 22.3 500.72 21.64 492.99 21.64 492.99 20.89 492.24 20.89 492.24 20.22 491.57 20.22 491.57 19.56 490.81 19.56 490.81 16.73 491.57 16.73 491.57 16.06 492.24 16.06 492.24 15.31 504.24 15.31 504.24 14.65 506.34 14.65 506.34 13.98 508.44 13.98 508.44 13.23 509.87 13.23 509.87 12.57 510.54 12.57 510.54 11.9 511.21 11.9 511.21 4.91 510.54 4.91 510.54 4.16 509.87 4.16 509.87 3.5 509.11 3.5 509.11 2.83 508.44 2.83 508.44 1.42 507.01 1.42 507.01 0.67 506.34 0.67 506.34 0 492.99 0 492.99 0.67 487.37 0.67 487.37 1.42 481.75 1.42 481.75 2.08 479.56 2.08 479.56 2.83 476.12 2.83 476.12 3.5 473.27 3.5 473.27 4.16 470.5 4.16 470.5 4.91 468.31 4.91 468.31 5.58 466.22 5.58 466.22 6.33 463.45 6.33 463.45 6.99 462.02 6.99 462.02 10.49 461.35 10.49 461.35 12.57 459.17 12.57 459.17 16.06 457.82 16.06 457.82 16.73 456.39 16.73 456.39 17.48 455.72 17.48 455.72 18.14 454.97 18.14 454.97 18.81 453.54 18.81 453.54 19.56 452.87 19.56 452.87 20.22 451.44 20.22 451.44 20.89 450.77 20.89 450.77 21.64 450.1 21.64 450.1 22.3 448.67 22.3 448.67 23.05 447.92 23.05 447.92 25.13 447.25 25.13 447.25 25.8 446.57 25.8 446.57 27.21 445.82 27.21 445.82 29.3 446.57 29.3 446.57 29.96 447.25 29.96 447.25 30.71 447.92 30.71 447.92 32.04 450.1 32.04 450.1 32.79 457.07 32.79 457.07 32.04 462.02 32.04 462.02 31.38 464.79 31.38 464.79 30.71 466.22 30.71 466.22 29.96 470.5 29.96 470.5 30.71 474.69 30.71 474.69 31.38 475.37 31.38 475.37 32.04 476.12 32.04 476.12 34.87 476.79 34.87 476.79 38.37 476.12 38.37 476.12 39.78 475.37 39.78 475.37 41.11 474.69 41.11 474.69 41.86 473.94 41.86 473.94 42.53 473.27 42.53 473.27 43.19 472.6 43.19 472.6 43.94 471.84 43.94 471.84 44.61 471.17 44.61 471.17 45.36 470.5 45.36 470.5 46.02 466.97 46.02 466.97 46.69 466.22 46.69 466.22 47.44 464.79 47.44 464.79 48.1 464.12 48.1 464.12 48.85 463.45 48.85 463.45 49.52 460.59 49.52 460.59 50.19 459.17 50.19 459.17 51.6 457.82 51.6 457.82 52.27 457.07 52.27 457.07 53.01 456.39 53.01 456.39 53.68 455.72 53.68 455.72 54.43 454.97 54.43 454.97 55.09 453.54 55.09 453.54 55.76 452.87 55.76 452.87 56.51 452.2 56.51 452.2 57.18 451.44 57.18 451.44 58.59 450.77 58.59 450.77 59.26 450.1 59.26 450.1 60.01 449.34 60.01 449.34 60.67 448.67 60.67 448.67 61.34 447.92 61.34 447.92 62.75 446.57 62.75 446.57 64.83 445.82 64.83 445.82 66.25 445.15 66.25 445.15 69.74 444.48 69.74 444.48 73.9 443.72 73.9 443.72 74.57 442.29 74.57 442.29 73.9 441.62 73.9 441.62 73.24 440.95 73.24 440.95 72.49 440.19 72.49 440.19 71.82 436.67 71.82 436.67 68.99 437.42 68.99 437.42 69.74 438.85 69.74 438.85 70.41 440.95 70.41 440.95 68.33 436.67 68.33 436.67 65.58 435.32 65.58 435.32 64.83 434.57 64.83 434.57 64.17 433.9 64.17 433.9 63.42 433.23 63.42 433.23 62.09 432.47 62.09 432.47 60.67 431.8 60.67 431.8 58.59 431.04 58.59 431.04 57.18 429.7 57.18 429.7 54.43 428.94 54.43 428.94 53.01 428.27 53.01 428.27 52.27 427.6 52.27 427.6 51.6 426.85 51.6 426.85 50.93 425.42 50.93 425.42 49.52 424.08 49.52 424.08 48.85 423.32 48.85 423.32 46.69 422.65 46.69 422.65 46.02 419.8 46.02 419.8 43.94 419.12 43.94 419.12 41.86 418.45 41.86 418.45 40.45 417.7 40.45 417.7 39.78 417.03 39.78 417.03 38.37 416.27 38.37 416.27 37.62 415.6 37.62 415.6 36.29 414.93 36.29 414.93 35.54 414.17 35.54 414.17 34.87 412.83 34.87 412.83 33.46 412.07 33.46 412.07 31.38 412.83 31.38 412.83 30.71 414.17 30.71 414.17 32.79 415.6 32.79 415.6 29.3 414.93 29.3 414.93 28.63 414.17 28.63 414.17 29.3 413.5 29.3 413.5 29.96 412.83 29.96 412.83 30.71 412.07 30.71 412.07 31.38 410.65 31.38 410.65 32.04 409.3 32.04 409.3 32.79 408.55 32.79 408.55 33.46 407.88 33.46 407.88 34.21 407.2 34.21 407.2 34.87 405.78 34.87 405.78 35.54 405.02 35.54 405.02 36.29 404.35 36.29 404.35 36.95 402.92 36.95 402.92 37.62 402.25 37.62 402.25 38.37 401.58 38.37 401.58 39.03 400.82 39.03 400.82 39.78 400.15 39.78 400.15 40.45 399.4 40.45 399.4 41.11 398.73 41.11 398.73 41.86 398.06 41.86 398.06 42.53 397.3 42.53 397.3 43.94 396.63 43.94 396.63 44.61 395.96 44.61 395.96 46.02 395.2 46.02 395.2 46.69 394.53 46.69 394.53 48.1 393.77 48.1 393.77 48.85 393.1 48.85 393.1 50.93 392.43 50.93 392.43 51.6 391.68 51.6 391.68 53.68 391 53.68 391 54.43 390.33 54.43 390.33 55.76 389.58 55.76 389.58 57.18 388.9 57.18 388.9 60.01 388.15 60.01 388.15 62.75 387.48 62.75 387.48 64.83 388.15 64.83 388.15 68.33 389.58 68.33 389.58 73.9 390.33 73.9 390.33 76.73 389.58 76.73 389.58 79.48 391 79.48 391 70.41 391.68 70.41 391.68 68.33 393.1 68.33 393.1 69.74 393.77 69.74 393.77 71.16 394.53 71.16 394.53 72.49 395.2 72.49 395.2 73.24 395.96 73.24 395.96 74.57 396.63 74.57 396.63 75.98 397.3 75.98 397.3 79.48 398.73 79.48 398.73 81.56 399.4 81.56 399.4 82.31 400.15 82.31 400.15 82.98 400.82 82.98 400.82 83.64 402.92 83.64 402.92 81.56 404.35 81.56 404.35 82.31 405.02 82.31 405.02 83.64 405.78 83.64 405.78 84.39 406.45 84.39 406.45 85.81 407.2 85.81 407.2 87.14 407.88 87.14 407.88 89.22 408.55 89.22 408.55 90.63 409.97 90.63 409.97 92.71 410.65 92.71 410.65 93.46 411.4 93.46 411.4 94.13 412.07 94.13 412.07 94.79 414.17 94.79 414.17 95.54 414.93 95.54 414.93 94.79 415.6 94.79 415.6 93.46 417.03 93.46 417.03 95.54 416.27 95.54 416.27 96.21 415.6 96.21 415.6 99.04 414.93 99.04 414.93 99.7 414.17 99.7 414.17 101.78 415.6 101.78 415.6 101.12 417.03 101.12 417.03 101.78 417.7 101.78 417.7 103.2 418.45 103.2 418.45 101.78 417.7 101.78 417.7 100.37 419.12 100.37 419.12 101.78 419.8 101.78 419.8 99.7 418.45 99.7 418.45 96.96 419.12 96.96 419.12 97.62 420.55 97.62 420.55 98.29 421.22 98.29 421.22 99.7 420.55 99.7 420.55 98.29 419.8 98.29 419.8 99.7" fill="#bd013c" fill-rule="evenodd"/><polygon points="399.4 188.92 399.4 189.67 398.73 189.67 398.73 191 397.3 191 397.3 193.17 395.96 193.17 395.96 193.83 395.2 193.83 395.2 194.5 394.53 194.5 394.53 195.25 393.77 195.25 393.77 196.66 393.1 196.66 393.1 197.33 391.68 197.33 391.68 197.99 389.58 197.99 389.58 198.74 388.9 198.74 388.9 199.41 388.15 199.41 388.15 200.07 386.05 200.07 386.05 200.82 374.8 200.82 374.8 200.07 370.61 200.07 370.61 199.41 363.55 199.41 363.55 200.07 361.46 200.07 361.46 200.82 360.78 200.82 360.78 201.49 360.03 201.49 360.03 202.24 359.36 202.24 359.36 203.57 358.69 203.57 358.69 208.48 359.36 208.48 359.36 209.89 360.03 209.89 360.03 210.56 360.78 210.56 360.78 211.23 361.46 211.23 361.46 211.97 362.13 211.97 362.13 212.64 362.88 212.64 362.88 213.39 364.31 213.39 364.31 214.06 364.98 214.06 364.98 214.72 366.41 214.72 366.41 215.47 367.75 215.47 367.75 216.14 369.18 216.14 369.18 216.8 370.61 216.8 370.61 217.55 372.03 217.55 372.03 218.22 372.7 218.22 372.7 218.97 373.38 218.97 373.38 219.63 374.13 219.63 374.13 221.05 374.8 221.05 374.8 224.54 374.13 224.54 374.13 225.21 373.38 225.21 373.38 225.87 372.7 225.87 372.7 226.62 372.03 226.62 372.03 227.29 371.28 227.29 371.28 227.95 370.61 227.95 370.61 228.7 369.93 228.7 369.93 232.2 370.61 232.2 370.61 234.28 371.28 234.28 371.28 234.94 372.03 234.94 372.03 235.69 372.7 235.69 372.7 236.36 373.38 236.36 373.38 237.03 374.13 237.03 374.13 237.78 374.8 237.78 374.8 238.44 376.23 238.44 376.23 239.19 377.66 239.19 377.66 239.85 378.33 239.85 378.33 240.52 379 240.52 379 241.27 380.43 241.27 380.43 241.94 381.85 241.94 381.85 242.6 383.28 242.6 383.28 243.35 384.62 243.35 384.62 244.02 386.05 244.02 386.05 244.76 388.9 244.76 388.9 245.43 390.33 245.43 390.33 246.1 393.1 246.1 393.1 246.85 395.96 246.85 395.96 247.51 402.92 247.51 402.92 248.18 414.17 248.18 414.17 247.51 418.45 247.51 418.45 246.85 423.32 246.85 423.32 246.1 425.42 246.1 425.42 245.43 428.94 245.43 428.94 244.76 431.04 244.76 431.04 244.02 433.23 244.02 433.23 243.35 436.67 243.35 436.67 242.6 438.85 242.6 438.85 241.94 440.19 241.94 440.19 241.27 442.29 241.27 442.29 240.52 443.72 240.52 443.72 239.85 446.57 239.85 446.57 239.19 447.92 239.19 447.92 238.44 450.77 238.44 450.77 237.78 452.2 237.78 452.2 237.03 453.54 237.03 453.54 236.36 454.3 236.36 454.3 235.69 454.97 235.69 454.97 234.28 455.72 234.28 455.72 233.61 454.97 233.61 454.97 232.86 454.3 232.86 454.3 232.2 453.54 232.2 453.54 231.45 454.3 231.45 454.3 232.2 455.72 232.2 455.72 232.86 457.07 232.86 457.07 231.45 458.49 231.45 458.49 230.78 459.17 230.78 459.17 227.29 460.59 227.29 460.59 226.62 459.17 226.62 459.17 227.29 452.87 227.29 452.87 226.62 452.2 226.62 452.2 225.87 451.44 225.87 451.44 224.54 444.48 224.54 444.48 223.79 443.72 223.79 443.72 222.38 443.05 222.38 443.05 221.05 442.29 221.05 442.29 220.3 440.19 220.3 440.19 219.63 439.52 219.63 439.52 218.97 440.19 218.97 440.19 218.22 438.85 218.22 438.85 217.55 437.42 217.55 437.42 216.8 436.67 216.8 436.67 215.47 435.32 215.47 435.32 214.72 434.57 214.72 434.57 214.06 433.9 214.06 433.9 213.39 427.6 213.39 427.6 209.15 426.85 209.15 426.85 207.81 427.6 207.81 427.6 206.4 426.85 206.4 426.85 205.65 425.42 205.65 425.42 204.98 424.08 204.98 424.08 204.32 421.89 204.32 421.89 203.57 420.55 203.57 420.55 202.24 422.65 202.24 422.65 200.82 421.89 200.82 421.89 199.41 421.22 199.41 421.22 198.74 420.55 198.74 420.55 197.99 419.8 197.99 419.8 197.33 419.12 197.33 419.12 196.66 418.45 196.66 418.45 195.91 416.27 195.91 416.27 195.25 414.17 195.25 414.17 195.91 412.07 195.91 412.07 195.25 410.65 195.25 410.65 193.83 409.97 193.83 409.97 193.17 409.3 193.17 409.3 191 407.2 191 407.2 190.34 406.45 190.34 406.45 189.67 405.02 189.67 405.02 188.92 407.2 188.92 407.2 188.26 408.55 188.26 408.55 187.59 407.2 187.59 407.2 186.84 402.92 186.84 402.92 188.26 402.25 188.26 402.25 187.59 401.58 187.59 401.58 188.26 400.82 188.26 400.82 188.92 399.4 188.92" fill="#029cdb" fill-rule="evenodd"/><polygon points="462.02 6.99 459.17 6.99 459.17 7.66 457.07 7.66 457.07 8.41 455.72 8.41 455.72 9.07 453.54 9.07 453.54 9.74 450.77 9.74 450.77 10.49 449.34 10.49 449.34 11.15 447.92 11.15 447.92 12.57 444.48 12.57 444.48 13.23 443.72 13.23 443.72 13.98 440.95 13.98 440.95 14.65 440.19 14.65 440.19 15.31 436.67 15.31 436.67 16.06 435.32 16.06 435.32 16.73 433.9 16.73 433.9 17.48 432.47 17.48 432.47 18.14 431.04 18.14 431.04 18.81 430.37 18.81 430.37 19.56 428.94 19.56 428.94 20.22 428.27 20.22 428.27 20.89 425.42 20.89 425.42 22.3 424.08 22.3 424.08 23.05 423.32 23.05 423.32 23.72 421.89 23.72 421.89 24.39 421.22 24.39 421.22 25.13 419.8 25.13 419.8 25.8 418.45 25.8 418.45 26.47 417.7 26.47 417.7 27.21 417.03 27.21 417.03 27.88 414.17 27.88 414.17 28.63 413.5 28.63 413.5 29.3 412.83 29.3 412.83 29.96 412.07 29.96 412.07 30.71 411.4 30.71 411.4 31.38 412.07 31.38 412.07 30.71 412.83 30.71 412.83 29.96 413.5 29.96 413.5 29.3 414.17 29.3 414.17 28.63 414.93 28.63 414.93 29.3 415.6 29.3 415.6 32.79 414.17 32.79 414.17 30.71 412.83 30.71 412.83 31.38 412.07 31.38 412.07 33.46 412.83 33.46 412.83 34.87 414.17 34.87 414.17 35.54 414.93 35.54 414.93 36.29 415.6 36.29 415.6 37.62 416.27 37.62 416.27 38.37 417.03 38.37 417.03 39.78 417.7 39.78 417.7 40.45 418.45 40.45 418.45 41.86 419.12 41.86 419.12 43.94 419.8 43.94 419.8 46.02 422.65 46.02 422.65 46.69 423.32 46.69 423.32 48.85 424.08 48.85 424.08 49.52 425.42 49.52 425.42 50.93 426.85 50.93 426.85 51.6 427.6 51.6 427.6 52.27 428.27 52.27 428.27 53.01 428.94 53.01 428.94 54.43 429.7 54.43 429.7 57.18 431.04 57.18 431.04 58.59 431.8 58.59 431.8 60.67 432.47 60.67 432.47 62.09 433.23 62.09 433.23 63.42 433.9 63.42 433.9 64.17 434.57 64.17 434.57 64.83 435.32 64.83 435.32 65.58 436.67 65.58 436.67 68.33 440.95 68.33 440.95 70.41 438.85 70.41 438.85 69.74 437.42 69.74 437.42 68.99 436.67 68.99 436.67 71.82 440.19 71.82 440.19 72.49 440.95 72.49 440.95 73.24 441.62 73.24 441.62 73.9 442.29 73.9 442.29 74.57 443.72 74.57 443.72 73.9 444.48 73.9 444.48 69.74 445.15 69.74 445.15 66.25 445.82 66.25 445.82 64.83 446.57 64.83 446.57 62.75 447.92 62.75 447.92 61.34 448.67 61.34 448.67 60.67 449.34 60.67 449.34 60.01 450.1 60.01 450.1 59.26 450.77 59.26 450.77 58.59 451.44 58.59 451.44 57.18 452.2 57.18 452.2 56.51 452.87 56.51 452.87 55.76 453.54 55.76 453.54 55.09 454.97 55.09 454.97 54.43 455.72 54.43 455.72 53.68 456.39 53.68 456.39 53.01 457.07 53.01 457.07 52.27 457.82 52.27 457.82 51.6 459.17 51.6 459.17 50.19 460.59 50.19 460.59 49.52 463.45 49.52 463.45 48.85 464.12 48.85 464.12 48.1 464.79 48.1 464.79 47.44 466.22 47.44 466.22 46.69 466.97 46.69 466.97 46.02 470.5 46.02 470.5 45.36 471.17 45.36 471.17 44.61 471.84 44.61 471.84 43.94 472.6 43.94 472.6 43.19 473.27 43.19 473.27 42.53 473.94 42.53 473.94 41.86 474.69 41.86 474.69 41.11 475.37 41.11 475.37 39.78 476.12 39.78 476.12 38.37 476.79 38.37 476.79 34.87 476.12 34.87 476.12 32.04 475.37 32.04 475.37 31.38 474.69 31.38 474.69 30.71 470.5 30.71 470.5 29.96 466.22 29.96 466.22 30.71 464.79 30.71 464.79 31.38 462.02 31.38 462.02 32.04 457.07 32.04 457.07 32.79 450.1 32.79 450.1 32.04 447.92 32.04 447.92 30.71 447.25 30.71 447.25 29.96 446.57 29.96 446.57 29.3 445.82 29.3 445.82 27.21 446.57 27.21 446.57 25.8 447.25 25.8 447.25 25.13 447.92 25.13 447.92 23.05 448.67 23.05 448.67 22.3 450.1 22.3 450.1 21.64 450.77 21.64 450.77 20.89 451.44 20.89 451.44 20.22 452.87 20.22 452.87 19.56 453.54 19.56 453.54 18.81 454.97 18.81 454.97 18.14 455.72 18.14 455.72 17.48 456.39 17.48 456.39 16.73 457.82 16.73 457.82 16.06 459.17 16.06 459.17 12.57 461.35 12.57 461.35 10.49 462.02 10.49 462.02 6.99" fill="#780603" fill-rule="evenodd"/><polygon points="428.94 145.06 428.94 146.39 429.7 146.39 429.7 145.06 430.37 145.06 430.37 146.39 431.04 146.39 431.04 149.22 431.8 149.22 431.8 152.72 431.04 152.72 431.04 154.8 431.8 154.8 431.8 161.04 431.04 161.04 431.04 164.54 430.37 164.54 430.37 165.95 429.7 165.95 429.7 168.7 428.94 168.7 428.94 170.11 428.27 170.11 428.27 171.53 427.6 171.53 427.6 172.94 426.85 172.94 426.85 173.61 426.18 173.61 426.18 174.27 425.42 174.27 425.42 175.69 424.75 175.69 424.75 176.44 424.08 176.44 424.08 177.1 423.32 177.1 423.32 178.52 422.65 178.52 422.65 179.18 421.89 179.18 421.89 179.85 421.22 179.85 421.22 180.6 420.55 180.6 420.55 181.26 419.8 181.26 419.8 182.01 419.12 182.01 419.12 182.68 421.22 182.68 421.22 183.34 425.42 183.34 425.42 184.09 428.94 184.09 428.94 184.76 433.9 184.76 433.9 185.43 442.29 185.43 442.29 186.18 453.54 186.18 453.54 185.43 456.39 185.43 456.39 184.76 457.82 184.76 457.82 182.01 456.39 182.01 456.39 181.26 451.44 181.26 451.44 180.6 446.57 180.6 446.57 179.85 443.72 179.85 443.72 179.18 442.29 179.18 442.29 178.52 440.19 178.52 440.19 177.77 438.85 177.77 438.85 177.1 438.1 177.1 438.1 176.44 437.42 176.44 437.42 175.69 436.67 175.69 436.67 175.02 436 175.02 436 174.27 435.32 174.27 435.32 173.61 434.57 173.61 434.57 172.19 433.9 172.19 433.9 169.45 434.57 169.45 434.57 168.7 435.32 168.7 435.32 168.03 436 168.03 436 167.37 436.67 167.37 436.67 166.62 437.42 166.62 437.42 165.95 438.85 165.95 438.85 165.28 440.19 165.28 440.19 164.54 442.29 164.54 442.29 163.87 443.72 163.87 443.72 163.12 446.57 163.12 446.57 162.46 447.25 162.46 447.25 161.79 447.92 161.79 447.92 162.46 450.1 162.46 450.1 161.79 447.92 161.79 447.92 161.04 452.2 161.04 452.2 160.38 453.54 160.38 453.54 159.71 454.97 159.71 454.97 158.96 450.77 158.96 450.77 158.29 453.54 158.29 453.54 153.38 454.3 153.38 454.3 151.97 453.54 151.97 453.54 149.22 454.3 149.22 454.3 148.47 454.97 148.47 454.97 140.82 456.39 140.82 456.39 133.16 457.07 133.16 457.07 131.75 457.82 131.75 457.82 127.58 458.49 127.58 458.49 126.92 459.17 126.92 459.17 121.34 459.92 121.34 459.92 120.59 460.59 120.59 460.59 118.51 459.17 118.51 459.17 115.02 459.92 115.02 459.92 114.35 460.59 114.35 460.59 112.94 461.35 112.94 461.35 108.78 462.02 108.78 462.02 104.61 461.35 104.61 461.35 101.78 463.45 101.78 463.45 101.12 462.69 101.12 462.69 100.37 462.02 100.37 462.02 99.7 461.35 99.7 461.35 99.04 460.59 99.04 460.59 98.29 459.92 98.29 459.92 97.62 459.17 97.62 459.17 96.96 458.49 96.96 458.49 96.21 457.82 96.21 457.82 95.54 457.07 95.54 457.07 94.79 456.39 94.79 456.39 93.46 455.72 93.46 455.72 92.71 454.97 92.71 454.97 92.05 452.87 92.05 452.87 92.71 452.2 92.71 452.2 93.46 451.44 93.46 451.44 94.13 450.77 94.13 450.77 94.79 450.1 94.79 450.1 95.54 449.34 95.54 449.34 96.96 448.67 96.96 448.67 97.62 447.92 97.62 447.92 99.04 447.25 99.04 447.25 105.95 447.92 105.95 447.92 107.36 448.67 107.36 448.67 108.78 449.34 108.78 449.34 110.19 450.1 110.19 450.1 112.27 450.77 112.27 450.77 112.94 451.44 112.94 451.44 114.35 452.2 114.35 452.2 115.77 452.87 115.77 452.87 118.51 452.2 118.51 452.2 119.26 447.92 119.26 447.92 118.51 446.57 118.51 446.57 117.85 445.82 117.85 445.82 117.1 445.15 117.1 445.15 116.43 444.48 116.43 444.48 115.77 442.29 115.77 442.29 115.02 439.52 115.02 439.52 115.77 438.85 115.77 438.85 116.43 438.1 116.43 438.1 117.1 437.42 117.1 437.42 117.85 436.67 117.85 436.67 119.26 436 119.26 436 121.34 436.67 121.34 436.67 124.09 437.42 124.09 437.42 124.84 438.1 124.84 438.1 126.17 438.85 126.17 438.85 127.58 439.52 127.58 439.52 129 440.19 129 440.19 132.5 439.52 132.5 439.52 133.16 438.85 133.16 438.85 133.91 438.1 133.91 438.1 134.57 436.67 134.57 436.67 135.24 432.47 135.24 432.47 135.99 430.37 135.99 430.37 136.66 429.7 136.66 429.7 137.32 428.94 137.32 428.94 140.82 429.7 140.82 429.7 141.57 428.94 141.57 428.94 142.23 429.7 142.23 429.7 145.06 428.94 145.06" fill="#c7c5ca" fill-rule="evenodd"/><path d="M450.1,162.46h2.1v-.67h4.19V161h2.77v-.66h4.29v-.67h2.77V159h1.42v-.67h2.86v-.74h1.34v-.67h2.1v-.67h2.18v-.75h1.34v-.66h1.43v-.75h1.43v-.67h1.43v-.66h1.34V152h.75v-.67h1.35v-.66h1.42v-.75h.76v-.67H488v-.75h.67v-.66h.76v-.67h.67v-.75h.67v-.66h.76v-.67h.67v-1.41H493v-2.08h.67v-8.41H493v-1.41h-.75v-1.34h-.67v-.75h-.76V129h-.67v-1.42h-.67v-1.41h-.76v-.67H488v-.66h-.67v-.75h-.76v-.67h-.67V122h-.75v-.67h-.67v-.75h-.68v-.66h-.75v-1.42h-.67v-.66h-.67v-.75H481v-.67h-.67v-.66h-.76V115h-.67v-.67h-.67v-.66h-.76v-.75h-.67v-.67h-.67v-.75h-.75v-.66h-.68v-.67h-.75v-.75h-.67v-.66h-.67v-.67h-.76v-.75h-.67v-.67h-.67V106h-.76v-.67h-.67v-.67h-1.43v-.74H467v-.67h-.75v-.67h-1.43v-.75h-.67v-.66h-.67v-.75h-.76V99.7H462V99h-.67v-.75h-.76v-.67h-.67V97h-.76v-.75h-.67v-.67h-.67v-.75h-.75v-.66h-.68v.66h.68v.75h.75v.67h.67V97h.67v.66h.76v.67h.67V99h.76v.66H462v.67h.67v.75h.76v.66h-2.1v2.83H462v4.17h-.67v4.16h-.76v1.41h-.67V115h-.76v3.49h1.43v2.08h-.67v.75h-.76v5.58h-.67v.66h-.67v4.17h-.75v1.41h-.68v7.66H455v7.65h-.67v.75h-.76V152h.76v1.41h-.76v4.91h-2.77V159H455v.75h-1.43v.67H452.2V161h-4.28v.75h2.18Zm-3.53.66h1.35v-1.33h-.68v.67h-.67Z" fill="#9aa4b6" fill-rule="evenodd"/><path d="M429,145.06h.75v-2.83H429v-.66h.75v-.75H429v-3.5h.75v-.66h.67V136h2.1v-.75h4.2v-.66h1.43v-.67h.75v-.75h.67v-.67h.67V129h-.67v-1.42h-.67v-1.41h-.75v-1.33h-.68v-.75h-.75v-2.75H436v-2.08h.67v-1.41h.75v-.75h.68v-.67h.75v-.66h.67V115h2.77v.75h2.18v.66h.68v.67h.67v.75h.75v.66h1.35v.75h4.28v-.75h.67v-2.74h-.67v-1.42h-.76v-1.41h-.67v-.67h-.67v-2.08h-.76v-1.41h-.67v-1.42h-.75V106h-.68V99h.68V97.62h.75V97h.67V95.54h.76v-.75h.67v-.66h.67v-.67h.76v-.75h.67v-.66h1.43V90.63h-.76V90h-.67V88.55h-.67V87.14h-.76V85.81h-.67V83.64h-.67V79.48h.67V78.07h.67V76.73h.76V76h.67v-.66h.67v-.75h-.67v.75h-2.1V76h-1.43v.75h-1.42v.67h-1.35v.67h-1.42v.74h-1.43v.67h-1.43v.67h-.67v.74h-1.43v.67h-.67v.75h-.67V83h-1.43v.66h-.75v.75H436v.67h-1.43v.75h-.67v.66h-.67v.67h-.76v.75h-.67v.66H431v.67h-.67V90h-.67v.66H429v.75h-.68v1.33h-.67v.75h-.75v.67h-.67v1.41h-.76v.67h-.67v1.41h-.67V99h-.76v1.33h-.67v1.41h-.76v1.42h-.67v2.08h-.67v2.08h-.75v3.5h-.68v4.91h-.67v11.15h.67v3.49h.68v.67h.75v.67h.67v.74h.67v1.42h.76v.67h.67V136h.76v.67h.67v.66h.67v1.42h.76v1.41h.67v1.42h.75v1.33h.67v1.41H429Zm2.09,7.66h.76v-3.5H431v-2.83h-.67v-1.33h-.67v2.75h.67v3.49H431Z" fill="#fdfdfd" fill-rule="evenodd"/><polygon points="387.48 64.83 387.48 68.33 386.81 68.33 386.81 79.48 387.48 79.48 387.48 81.56 388.15 81.56 388.15 85.06 388.9 85.06 388.9 87.89 389.58 87.89 389.58 89.22 390.33 89.22 390.33 90.63 391 90.63 391 92.71 391.68 92.71 391.68 94.79 392.43 94.79 392.43 96.21 393.1 96.21 393.1 97.62 393.77 97.62 393.77 99.04 394.53 99.04 394.53 100.37 395.2 100.37 395.2 101.78 395.96 101.78 395.96 103.2 396.63 103.2 396.63 103.86 397.3 103.86 397.3 105.28 398.06 105.28 398.06 105.95 398.73 105.95 398.73 107.36 399.4 107.36 399.4 108.78 400.15 108.78 400.15 109.44 400.82 109.44 400.82 110.19 401.58 110.19 401.58 111.52 402.25 111.52 402.25 112.27 402.92 112.27 402.92 112.94 403.68 112.94 403.68 114.35 404.35 114.35 404.35 115.02 405.02 115.02 405.02 115.77 405.78 115.77 405.78 116.43 406.45 116.43 406.45 117.85 407.2 117.85 407.2 118.51 407.88 118.51 407.88 119.26 408.55 119.26 408.55 119.93 409.3 119.93 409.3 120.59 409.97 120.59 409.97 121.34 410.65 121.34 410.65 122.01 411.4 122.01 411.4 122.76 412.07 122.76 412.07 123.42 412.83 123.42 412.83 124.09 414.17 124.09 414.17 125.5 414.93 125.5 414.93 126.17 415.6 126.17 415.6 126.92 416.27 126.92 416.27 127.58 417.03 127.58 417.03 128.33 417.7 128.33 417.7 129 418.45 129 418.45 129.66 419.12 129.66 419.12 126.92 418.45 126.92 418.45 115.77 419.12 115.77 419.12 110.86 419.8 110.86 419.8 107.36 420.55 107.36 420.55 105.28 421.22 105.28 421.22 103.2 421.89 103.2 421.89 102.53 421.22 102.53 421.22 100.37 420.55 100.37 420.55 99.7 419.8 99.7 419.8 98.29 420.55 98.29 420.55 99.7 421.22 99.7 421.22 98.29 420.55 98.29 420.55 97.62 419.12 97.62 419.12 96.96 418.45 96.96 418.45 99.7 419.8 99.7 419.8 101.78 419.12 101.78 419.12 100.37 417.7 100.37 417.7 101.78 418.45 101.78 418.45 103.2 417.7 103.2 417.7 101.78 417.03 101.78 417.03 101.12 415.6 101.12 415.6 101.78 414.17 101.78 414.17 99.7 414.93 99.7 414.93 99.04 415.6 99.04 415.6 96.21 416.27 96.21 416.27 95.54 417.03 95.54 417.03 93.46 415.6 93.46 415.6 94.79 414.93 94.79 414.93 95.54 414.17 95.54 414.17 94.79 412.07 94.79 412.07 94.13 411.4 94.13 411.4 93.46 410.65 93.46 410.65 92.71 409.97 92.71 409.97 90.63 408.55 90.63 408.55 89.22 407.88 89.22 407.88 87.14 407.2 87.14 407.2 85.81 406.45 85.81 406.45 84.39 405.78 84.39 405.78 83.64 405.02 83.64 405.02 82.31 404.35 82.31 404.35 81.56 402.92 81.56 402.92 83.64 400.82 83.64 400.82 82.98 400.15 82.98 400.15 82.31 399.4 82.31 399.4 81.56 398.73 81.56 398.73 79.48 397.3 79.48 397.3 75.98 396.63 75.98 396.63 74.57 395.96 74.57 395.96 73.24 395.2 73.24 395.2 72.49 394.53 72.49 394.53 71.16 393.77 71.16 393.77 69.74 393.1 69.74 393.1 68.33 391.68 68.33 391.68 70.41 391 70.41 391 79.48 389.58 79.48 389.58 76.73 390.33 76.73 390.33 73.9 389.58 73.9 389.58 68.33 388.15 68.33 388.15 64.83 387.48 64.83" fill="#c60167" fill-rule="evenodd"/><polygon points="56.24 204.32 55.57 204.32 55.57 204.98 54.9 204.98 54.9 237.03 55.57 237.03 55.57 237.78 56.24 237.78 56.24 238.44 62.62 238.44 62.62 237.78 63.29 237.78 63.29 217.55 63.96 217.55 63.96 218.97 64.72 218.97 64.72 219.63 65.39 219.63 65.39 221.05 66.15 221.05 66.15 221.71 66.82 221.71 66.82 223.13 67.49 223.13 67.49 224.54 68.25 224.54 68.25 226.62 68.92 226.62 68.92 227.29 69.59 227.29 69.59 228.7 70.34 228.7 70.34 230.12 71.02 230.12 71.02 230.78 71.77 230.78 71.77 232.2 72.44 232.2 72.44 232.86 73.11 232.86 73.11 234.28 73.87 234.28 73.87 235.69 74.54 235.69 74.54 236.36 75.21 236.36 75.21 237.03 75.97 237.03 75.97 237.78 76.64 237.78 76.64 238.44 83.69 238.44 83.69 237.78 84.36 237.78 84.36 204.98 83.69 204.98 83.69 204.32 76.64 204.32 76.64 205.65 75.97 205.65 75.97 224.54 75.21 224.54 75.21 223.13 74.54 223.13 74.54 221.71 73.87 221.71 73.87 220.3 73.11 220.3 73.11 218.97 72.44 218.97 72.44 217.55 71.77 217.55 71.77 216.14 71.02 216.14 71.02 215.47 70.34 215.47 70.34 214.06 69.59 214.06 69.59 213.39 68.92 213.39 68.92 211.97 68.25 211.97 68.25 210.56 67.49 210.56 67.49 209.89 66.82 209.89 66.82 209.15 66.15 209.15 66.15 207.81 65.39 207.81 65.39 205.65 64.72 205.65 64.72 204.98 63.96 204.98 63.96 204.32 62.62 204.32 62.62 203.57 56.24 203.57 56.24 204.32" fill="#029cdb" fill-rule="evenodd"/><path d="M248.22,218.22h-.67V219h-1.43v.66h-4.87v-8.4h6.3V212h.67v.67H249v4.91h-.75Zm-14.78-13.9h-.67V205h-.67v32.79h.67v.67h1.43v.75h5.62v-.75h.67v-.67h.76V227.29h4.2v1.41h.67v1.42h.75v.66h.68v1.42h.67v1.41H249v1.33h.67v.75h.68V237h.75v.74h.67v.67h7.05v-.67h.68v-2.08h-.68v-1.41h-.67v-1.42h-.75v-1.41h-.67v-.67h-.76v-1.41h-.67V228h-.67v-1.33h-.76v-.75h-.67v-2.08h.67v-.66h.76v-.75h.67v-.67h.67v-.66h.76V219h.67v-1.42h.75V212h-.75v-2.08h-.67v-1.41h-.76v-.67h-.67v-.75h-.67v-.66h-.76v-.75h-.67V205h-2.1v-.66h-2.85v-.75H233.44Z" fill="#029cdb" fill-rule="evenodd"/><path d="M182.83,219H181.4v.66h-5.62v-8.4h6.37V212h.68v.67h.75v5.58h-.75Zm-14.78-14.65h-.67V205h-.67v32.79h.67v.67h7.05v-.67h.67V237h.68v-9.74h4.28V228h.67v2.17h.67v.66h.75v1.42h.68v.66h.75v2.08h.67v.75h.67V237h.76v.74h.67v.67h7.05v-.67h.67v-2.08h-.67v-1.41h-.75v-1.42H192v-1.41h-.68v-1.33h-.75V228.7h-.67V228h-.67v-1.33h-.76v-1.41h-.67v-1.42h1.43v-1.41h.67v-.67h.67v-.66h.75V219H192v-1.42h.67V212H192v-1.41h-.68v-1.41h-.75v-1.34h-.67v-.75h-.67v-.66h-.76v-.75h-.67V205h-1.43v-.66h-1.43v-.75H168.05Z" fill="#029cdb" fill-rule="evenodd"/><polygon points="149.75 204.32 149.75 204.98 149.08 204.98 149.08 227.95 148.41 227.95 148.41 228.7 147.66 228.7 147.66 230.12 146.31 230.12 146.31 230.78 144.13 230.78 144.13 231.45 139.93 231.45 139.93 230.78 138.5 230.78 138.5 230.12 137.83 230.12 137.83 229.37 137.16 229.37 137.16 227.29 136.41 227.29 136.41 204.98 135.74 204.98 135.74 204.32 135.06 204.32 135.06 203.57 129.44 203.57 129.44 204.32 128.68 204.32 128.68 204.98 128.01 204.98 128.01 228.7 128.68 228.7 128.68 230.78 129.44 230.78 129.44 232.2 130.11 232.2 130.11 233.61 130.78 233.61 130.78 234.28 131.54 234.28 131.54 234.94 132.21 234.94 132.21 235.69 132.88 235.69 132.88 237.03 134.31 237.03 134.31 237.78 136.41 237.78 136.41 238.44 137.83 238.44 137.83 239.19 146.98 239.19 146.98 238.44 148.41 238.44 148.41 237.78 149.75 237.78 149.75 237.03 151.18 237.03 151.18 236.36 151.94 236.36 151.94 235.69 153.28 235.69 153.28 234.94 154.03 234.94 154.03 234.28 154.71 234.28 154.71 233.61 155.38 233.61 155.38 232.2 156.13 232.2 156.13 230.78 156.8 230.78 156.8 205.65 156.13 205.65 156.13 204.98 155.38 204.98 155.38 204.32 149.75 204.32" fill="#029cdb" fill-rule="evenodd"/><path d="M19.73,219H19v.66H17.63v.67H12v-9.07h6.3V212H19v.67h.76v.75h.67v4.16h-.67ZM3.53,204.32H2.85V237h.68v1.41h7.05v-.67h.67V228H20.4v-.66h2.1v-.67h1.42v-.75h.68v-.66h.75v-.67H26v-.75h.67v-.66h.76v-1.42h.67V219h.76v-7h-.76v-2.08h-.67v-1.41h-.76v-.67H26v-.75h-.67v-.66H24.6v-.75h-.68V205H22.5v-.66H20.4v-.75H3.53Z" fill="#029cdb" fill-rule="evenodd"/><path d="M295.39,220.3h.67V219h.68v-3.5h.75v-1.41h.67v-.67h.67v2.75h.76V219h.67v1.33H301v2.08h.67v2.16h-6.3Zm-1.42-16h-.76v1.33h-.67v2.16h-.67v2.75h-.76V212h-.67v2.75h-.67v1.42H289V219h-.67v2.08h-.75v2.08h-.68v1.41h-.67v2.75h-.75v2.08h-.67v2.08h-.68v1.41h-.75v1.42h-.67v3.49h.67v.67h7.05V237h.67v-1.34h.76v-2.83h.67v-1.41h11.25v1.41h.67v2.83h.75V237h.68v.74h.75v.67h6.3v-.67h.67v-2.83h-.67V232.2h-.67v-2.08h-.76V228.7h-.67v-2.83h-.76v-1.33h-.67v-2.83h-.67V220.3H308v-2.75h-.67v-2.08h-.67v-2.08h-.75V212h-.68v-2.08h-.75v-2.08h-.67v-2.16h-.67v-1.33h-.76v-.75H294Z" fill="#029cdb" fill-rule="evenodd"/><polygon points="203.22 204.32 202.55 204.32 202.55 204.98 201.8 204.98 201.8 237.78 202.55 237.78 202.55 238.44 222.95 238.44 222.95 237.78 223.62 237.78 223.62 237.03 224.29 237.03 224.29 232.2 223.62 232.2 223.62 231.45 210.28 231.45 210.28 224.54 220.1 224.54 220.1 223.13 220.85 223.13 220.85 218.22 220.1 218.22 220.1 217.55 210.28 217.55 210.28 211.23 222.95 211.23 222.95 210.56 223.62 210.56 223.62 205.65 222.95 205.65 222.95 203.57 203.22 203.57 203.22 204.32" fill="#029cdb" fill-rule="evenodd"/><polygon points="327.04 204.32 325.61 204.32 325.61 204.98 324.19 204.98 324.19 205.65 323.51 205.65 323.51 206.4 322.76 206.4 322.76 207.06 322.09 207.06 322.09 207.81 321.42 207.81 321.42 209.15 320.66 209.15 320.66 210.56 319.99 210.56 319.99 216.8 320.66 216.8 320.66 218.97 321.42 218.97 321.42 219.63 322.09 219.63 322.09 220.3 322.76 220.3 322.76 221.05 323.51 221.05 323.51 221.71 324.19 221.71 324.19 222.38 326.28 222.38 326.28 223.13 327.04 223.13 327.04 223.79 328.38 223.79 328.38 224.54 329.81 224.54 329.81 225.21 331.91 225.21 331.91 225.87 333.33 225.87 333.33 226.62 334.01 226.62 334.01 227.29 334.76 227.29 334.76 227.95 335.43 227.95 335.43 230.12 334.76 230.12 334.76 230.78 334.01 230.78 334.01 231.45 329.81 231.45 329.81 230.78 327.04 230.78 327.04 230.12 325.61 230.12 325.61 229.37 324.19 229.37 324.19 228.7 322.09 228.7 322.09 229.37 321.42 229.37 321.42 230.12 320.66 230.12 320.66 230.78 319.99 230.78 319.99 231.45 319.23 231.45 319.23 235.69 319.99 235.69 319.99 236.36 321.42 236.36 321.42 237.03 322.76 237.03 322.76 237.78 324.19 237.78 324.19 238.44 327.71 238.44 327.71 239.19 335.43 239.19 335.43 238.44 336.86 238.44 336.86 237.78 338.96 237.78 338.96 237.03 339.63 237.03 339.63 236.36 340.39 236.36 340.39 235.69 341.06 235.69 341.06 234.94 341.73 234.94 341.73 234.28 342.49 234.28 342.49 232.86 343.16 232.86 343.16 231.45 343.91 231.45 343.91 225.87 343.16 225.87 343.16 224.54 342.49 224.54 342.49 223.79 341.73 223.79 341.73 222.38 341.06 222.38 341.06 221.71 340.39 221.71 340.39 221.05 339.63 221.05 339.63 220.3 338.96 220.3 338.96 219.63 336.86 219.63 336.86 218.97 335.43 218.97 335.43 218.22 334.76 218.22 334.76 217.55 332.66 217.55 332.66 216.8 331.24 216.8 331.24 216.14 329.81 216.14 329.81 215.47 329.14 215.47 329.14 214.72 328.38 214.72 328.38 212.64 329.14 212.64 329.14 211.97 329.81 211.97 329.81 211.23 335.43 211.23 335.43 211.97 336.11 211.97 336.11 212.64 337.53 212.64 337.53 213.39 340.39 213.39 340.39 212.64 341.06 212.64 341.06 211.97 341.73 211.97 341.73 210.56 342.49 210.56 342.49 209.15 343.16 209.15 343.16 206.4 342.49 206.4 342.49 205.65 341.73 205.65 341.73 204.98 339.63 204.98 339.63 204.32 336.86 204.32 336.86 203.57 327.04 203.57 327.04 204.32" fill="#029cdb" fill-rule="evenodd"/><polygon points="93.51 204.32 92.17 204.32 92.17 204.98 91.41 204.98 91.41 210.56 92.17 210.56 92.17 211.23 101.99 211.23 101.99 237.03 102.66 237.03 102.66 237.78 103.42 237.78 103.42 238.44 109.71 238.44 109.71 237.78 110.38 237.78 110.38 237.03 111.14 237.03 111.14 211.23 120.96 211.23 120.96 210.56 121.63 210.56 121.63 204.98 120.96 204.98 120.96 204.32 119.53 204.32 119.53 203.57 93.51 203.57 93.51 204.32" fill="#029cdb" fill-rule="evenodd"/><polygon points="267.94 204.32 267.19 204.32 267.19 237.78 267.94 237.78 267.94 238.44 275 238.44 275 237.78 275.67 237.78 275.67 204.98 275 204.98 275 204.32 274.24 204.32 274.24 203.57 267.94 203.57 267.94 204.32" fill="#029cdb" fill-rule="evenodd"/><polygon points="37.27 204.98 36.6 204.98 36.6 237.78 37.27 237.78 37.27 238.44 43.57 238.44 43.57 237.78 44.32 237.78 44.32 237.03 44.99 237.03 44.99 205.65 44.32 205.65 44.32 204.98 43.57 204.98 43.57 204.32 37.27 204.32 37.27 204.98" fill="#029cdb" fill-rule="evenodd"/><polygon points="275 191 274.24 191 274.24 191.75 273.57 191.75 273.57 192.42 272.9 192.42 272.9 193.83 272.14 193.83 272.14 194.5 271.47 194.5 271.47 195.91 270.71 195.91 270.71 196.66 270.04 196.66 270.04 199.41 275 199.41 275 198.74 275.67 198.74 275.67 197.99 276.34 197.99 276.34 197.33 277.09 197.33 277.09 196.66 277.76 196.66 277.76 195.91 278.52 195.91 278.52 195.25 279.19 195.25 279.19 194.5 279.86 194.5 279.86 193.83 280.62 193.83 280.62 191.75 279.86 191.75 279.86 191 279.19 191 279.19 190.34 275 190.34 275 191" fill="#029cdb" fill-rule="evenodd"/><polygon points="149.08 204.98 148.41 204.98 148.41 227.95 149.08 227.95 149.08 204.98 149.75 204.98 149.75 204.32 155.38 204.32 155.38 204.98 156.13 204.98 156.13 205.65 156.8 205.65 156.8 228.7 157.56 228.7 157.56 204.98 156.8 204.98 156.8 204.32 156.13 204.32 156.13 203.57 149.75 203.57 149.75 204.32 149.08 204.32 149.08 204.98" fill="#026ca5" fill-rule="evenodd"/><polygon points="502.14 22.3 502.14 21.64 501.39 21.64 501.39 20.89 494.34 20.89 494.34 20.22 492.99 20.22 492.99 19.56 492.24 19.56 492.24 18.81 491.57 18.81 491.57 17.48 492.24 17.48 492.24 16.73 494.34 16.73 494.34 16.06 500.72 16.06 500.72 15.31 492.24 15.31 492.24 16.06 491.57 16.06 491.57 16.73 490.81 16.73 490.81 19.56 491.57 19.56 491.57 20.22 492.24 20.22 492.24 20.89 492.99 20.89 492.99 21.64 500.72 21.64 500.72 22.3 502.14 22.3" fill="#6b0a2d" fill-rule="evenodd"/></svg>